<?xml version="1.0" encoding="utf-8"?>
<!-- Generator: Adobe Illustrator 27.2.0, SVG Export Plug-In . SVG Version: 6.00 Build 0)  -->
<svg version="1.1" id="Layer_1" xmlns="http://www.w3.org/2000/svg" xmlns:xlink="http://www.w3.org/1999/xlink" x="0px" y="0px"
	 viewBox="0 0 1920 1080" style="enable-background:new 0 0 1920 1080;" xml:space="preserve">
<style type="text/css">
	.st0{fill:#F8F7F4;}
	.st1{fill:#07203C;}
	.st2{fill:#FBF9F6;}
</style>
<rect x="-13.66" y="-15.9" class="st0" width="1952.65" height="1111.09"/>
<g>
	<g>
		<path class="st1" d="M769.27,635.73H659.31c-22.51,0-40.75-18.25-40.75-40.75V485.02c0-22.51,18.25-40.75,40.75-40.75h109.96
			c22.51,0,40.75,18.25,40.75,40.75v109.96C810.02,617.49,791.77,635.73,769.27,635.73z"/>
		<polygon class="st2" points="697.35,571.32 697.35,484.4 671.71,484.4 671.71,571.32 671.71,595.6 697.35,595.6 756.86,595.6 
			756.86,571.32 		"/>
	</g>
	<g>
		<path class="st1" d="M866.58,606.26V469.53h24.77V585.5h60.22v20.76H866.58z"/>
		<path class="st1" d="M1012.24,608.26c-10.28,0-19.15-2.15-26.6-6.44c-7.46-4.29-13.19-10.39-17.19-18.29
			c-4.01-7.9-6.01-17.21-6.01-27.94c0-10.55,2.01-19.82,6.04-27.81c4.03-7.99,9.67-14.22,16.92-18.69
			c7.25-4.47,15.78-6.71,25.57-6.71c6.32,0,12.29,1.01,17.93,3.04c5.63,2.03,10.62,5.15,14.95,9.38c4.34,4.23,7.75,9.6,10.25,16.12
			c2.49,6.52,3.74,14.28,3.74,23.27v7.41h-84.05v-16.29h60.89c-0.04-4.63-1.05-8.76-3-12.38c-1.96-3.63-4.68-6.49-8.18-8.58
			c-3.49-2.09-7.56-3.14-12.18-3.14c-4.94,0-9.28,1.19-13.02,3.57c-3.74,2.38-6.64,5.5-8.71,9.35c-2.07,3.85-3.13,8.07-3.17,12.65
			v14.22c0,5.96,1.09,11.07,3.27,15.32c2.18,4.25,5.23,7.5,9.15,9.75c3.92,2.25,8.5,3.37,13.75,3.37c3.52,0,6.7-0.5,9.55-1.5
			c2.85-1,5.32-2.48,7.41-4.44c2.09-1.96,3.67-4.38,4.74-7.28l22.57,2.54c-1.43,5.96-4.13,11.16-8.11,15.59
			c-3.98,4.43-9.07,7.86-15.25,10.28C1027.29,607.05,1020.21,608.26,1012.24,608.26z"/>
		<path class="st1" d="M1092.96,503.71l20.7,37.85l21.03-37.85h25.57l-30.91,51.27l31.44,51.27h-25.44l-21.7-36.92l-21.5,36.92
			h-25.64l31.24-51.27l-30.44-51.27H1092.96z"/>
		<path class="st1" d="M1186.02,489.16c-3.83,0-7.12-1.29-9.88-3.87c-2.76-2.58-4.14-5.67-4.14-9.28s1.38-6.69,4.14-9.25
			c2.76-2.56,6.05-3.84,9.88-3.84c3.87,0,7.18,1.29,9.91,3.87c2.74,2.58,4.11,5.67,4.11,9.28s-1.37,6.69-4.11,9.25
			C1193.2,487.88,1189.89,489.16,1186.02,489.16z M1173.87,606.26V503.71h24.17v102.55H1173.87z"/>
		<path class="st1" d="M1247.3,608.33c-6.5,0-12.34-1.17-17.52-3.51c-5.19-2.34-9.28-5.8-12.28-10.38c-3-4.58-4.51-10.24-4.51-16.96
			c0-5.79,1.07-10.57,3.2-14.35c2.14-3.78,5.05-6.81,8.75-9.08c3.69-2.27,7.87-3.99,12.52-5.17c4.65-1.18,9.47-2.04,14.45-2.57
			c6.01-0.62,10.88-1.19,14.62-1.7c3.74-0.51,6.46-1.31,8.18-2.4c1.71-1.09,2.57-2.79,2.57-5.11v-0.4c0-5.03-1.49-8.92-4.47-11.68
			c-2.98-2.76-7.28-4.14-12.88-4.14c-5.92,0-10.6,1.29-14.05,3.87c-3.45,2.58-5.78,5.63-6.98,9.15l-22.57-3.2
			c1.78-6.23,4.72-11.45,8.81-15.66c4.09-4.21,9.1-7.37,15.02-9.48c5.92-2.11,12.46-3.17,19.63-3.17c4.94,0,9.86,0.58,14.75,1.74
			c4.9,1.16,9.37,3.06,13.42,5.71c4.05,2.65,7.31,6.24,9.78,10.78c2.47,4.54,3.71,10.21,3.71,17.02v68.63h-23.23v-14.09h-0.8
			c-1.47,2.85-3.53,5.51-6.17,7.98c-2.65,2.47-5.96,4.45-9.95,5.94C1257.31,607.58,1252.64,608.33,1247.3,608.33z M1253.58,590.57
			c4.85,0,9.06-0.97,12.62-2.9c3.56-1.94,6.31-4.51,8.25-7.71c1.94-3.2,2.9-6.7,2.9-10.48v-12.08c-0.76,0.62-2.04,1.2-3.84,1.74
			c-1.8,0.53-3.82,1-6.04,1.4c-2.23,0.4-4.43,0.76-6.61,1.07c-2.18,0.31-4.07,0.58-5.67,0.8c-3.6,0.49-6.83,1.29-9.68,2.4
			c-2.85,1.11-5.1,2.66-6.74,4.64c-1.65,1.98-2.47,4.53-2.47,7.64c0,4.45,1.62,7.81,4.87,10.08
			C1244.41,589.43,1248.55,590.57,1253.58,590.57z"/>
	</g>
</g>
</svg>
